<svg xmlns="http://www.w3.org/2000/svg" version="1.1" xmlns:xlink="http://www.w3.org/1999/xlink" xmlns:svgjs="http://svgjs.dev/svgjs" viewBox="0 0 1422 800" opacity="0.68"><g stroke-width="3.5" stroke="hsl(205, 69%, 50%)" fill="none" stroke-linecap="butt"><line x1="52" y1="0" x2="0" y2="52" opacity="1.00"></line><line x1="104" y1="0" x2="52" y2="52" opacity="1.00"></line><line x1="156" y1="0" x2="104" y2="52" opacity="1.00"></line><line x1="208" y1="0" x2="156" y2="52" opacity="1.00"></line><line x1="208" y1="0" x2="260" y2="52" opacity="1.00"></line><line x1="260" y1="0" x2="312" y2="52" opacity="1.00"></line><line x1="312" y1="0" x2="364" y2="52" opacity="1.00"></line><line x1="416" y1="0" x2="364" y2="52" opacity="1.00"></line><line x1="468" y1="0" x2="416" y2="52" opacity="1.00"></line><line x1="468" y1="0" x2="520" y2="52" opacity="1.00"></line><line x1="520" y1="0" x2="572" y2="52" opacity="1.00"></line><line x1="624" y1="0" x2="572" y2="52" opacity="1.00"></line><line x1="676" y1="0" x2="624" y2="52" opacity="1.00"></line><line x1="676" y1="0" x2="728" y2="52" opacity="1.00"></line><line x1="780" y1="0" x2="728" y2="52" opacity="1.00"></line><line x1="832" y1="0" x2="780" y2="52" opacity="1.00"></line><line x1="832" y1="0" x2="884" y2="52" opacity="1.00"></line><line x1="884" y1="0" x2="936" y2="52" opacity="1.00"></line><line x1="936" y1="0" x2="988" y2="52" opacity="1.00"></line><line x1="988" y1="0" x2="1040" y2="52" opacity="1.00"></line><line x1="1092" y1="0" x2="1040" y2="52" opacity="1.00"></line><line x1="1092" y1="0" x2="1144" y2="52" opacity="1.00"></line><line x1="1196" y1="0" x2="1144" y2="52" opacity="1.00"></line><line x1="1196" y1="0" x2="1248" y2="52" opacity="1.00"></line><line x1="1300" y1="0" x2="1248" y2="52" opacity="1.00"></line><line x1="1352" y1="0" x2="1300" y2="52" opacity="1.00"></line><line x1="1352" y1="0" x2="1404" y2="52" opacity="1.00"></line><line x1="1404" y1="0" x2="1456" y2="52" opacity="1.00"></line><line x1="52" y1="52" x2="0" y2="104" opacity="0.94"></line><line x1="104" y1="52" x2="52" y2="104" opacity="0.94"></line><line x1="156" y1="52" x2="104" y2="104" opacity="0.94"></line><line x1="208" y1="52" x2="156" y2="104" opacity="0.94"></line><line x1="260" y1="52" x2="208" y2="104" opacity="0.94"></line><line x1="312" y1="52" x2="260" y2="104" opacity="0.94"></line><line x1="312" y1="52" x2="364" y2="104" opacity="0.94"></line><line x1="416" y1="52" x2="364" y2="104" opacity="0.94"></line><line x1="468" y1="52" x2="416" y2="104" opacity="0.94"></line><line x1="520" y1="52" x2="468" y2="104" opacity="0.94"></line><line x1="520" y1="52" x2="572" y2="104" opacity="0.94"></line><line x1="572" y1="52" x2="624" y2="104" opacity="0.94"></line><line x1="624" y1="52" x2="676" y2="104" opacity="0.94"></line><line x1="676" y1="52" x2="728" y2="104" opacity="0.94"></line><line x1="728" y1="52" x2="780" y2="104" opacity="0.94"></line><line x1="832" y1="52" x2="780" y2="104" opacity="0.94"></line><line x1="884" y1="52" x2="832" y2="104" opacity="0.94"></line><line x1="936" y1="52" x2="884" y2="104" opacity="0.94"></line><line x1="936" y1="52" x2="988" y2="104" opacity="0.94"></line><line x1="988" y1="52" x2="1040" y2="104" opacity="0.94"></line><line x1="1092" y1="52" x2="1040" y2="104" opacity="0.94"></line><line x1="1092" y1="52" x2="1144" y2="104" opacity="0.94"></line><line x1="1144" y1="52" x2="1196" y2="104" opacity="0.94"></line><line x1="1248" y1="52" x2="1196" y2="104" opacity="0.94"></line><line x1="1300" y1="52" x2="1248" y2="104" opacity="0.94"></line><line x1="1300" y1="52" x2="1352" y2="104" opacity="0.94"></line><line x1="1404" y1="52" x2="1352" y2="104" opacity="0.94"></line><line x1="1404" y1="52" x2="1456" y2="104" opacity="0.94"></line><line x1="52" y1="104" x2="0" y2="156" opacity="0.88"></line><line x1="52" y1="104" x2="104" y2="156" opacity="0.88"></line><line x1="104" y1="104" x2="156" y2="156" opacity="0.88"></line><line x1="208" y1="104" x2="156" y2="156" opacity="0.88"></line><line x1="260" y1="104" x2="208" y2="156" opacity="0.88"></line><line x1="312" y1="104" x2="260" y2="156" opacity="0.88"></line><line x1="312" y1="104" x2="364" y2="156" opacity="0.88"></line><line x1="416" y1="104" x2="364" y2="156" opacity="0.88"></line><line x1="468" y1="104" x2="416" y2="156" opacity="0.88"></line><line x1="468" y1="104" x2="520" y2="156" opacity="0.88"></line><line x1="572" y1="104" x2="520" y2="156" opacity="0.88"></line><line x1="624" y1="104" x2="572" y2="156" opacity="0.88"></line><line x1="676" y1="104" x2="624" y2="156" opacity="0.88"></line><line x1="676" y1="104" x2="728" y2="156" opacity="0.88"></line><line x1="780" y1="104" x2="728" y2="156" opacity="0.88"></line><line x1="832" y1="104" x2="780" y2="156" opacity="0.88"></line><line x1="832" y1="104" x2="884" y2="156" opacity="0.88"></line><line x1="884" y1="104" x2="936" y2="156" opacity="0.88"></line><line x1="988" y1="104" x2="936" y2="156" opacity="0.88"></line><line x1="1040" y1="104" x2="988" y2="156" opacity="0.88"></line><line x1="1092" y1="104" x2="1040" y2="156" opacity="0.88"></line><line x1="1092" y1="104" x2="1144" y2="156" opacity="0.88"></line><line x1="1144" y1="104" x2="1196" y2="156" opacity="0.88"></line><line x1="1196" y1="104" x2="1248" y2="156" opacity="0.88"></line><line x1="1300" y1="104" x2="1248" y2="156" opacity="0.88"></line><line x1="1352" y1="104" x2="1300" y2="156" opacity="0.88"></line><line x1="1404" y1="104" x2="1352" y2="156" opacity="0.88"></line><line x1="1404" y1="104" x2="1456" y2="156" opacity="0.88"></line><line x1="52" y1="156" x2="0" y2="208" opacity="0.81"></line><line x1="104" y1="156" x2="52" y2="208" opacity="0.81"></line><line x1="156" y1="156" x2="104" y2="208" opacity="0.81"></line><line x1="156" y1="156" x2="208" y2="208" opacity="0.81"></line><line x1="208" y1="156" x2="260" y2="208" opacity="0.81"></line><line x1="312" y1="156" x2="260" y2="208" opacity="0.81"></line><line x1="364" y1="156" x2="312" y2="208" opacity="0.81"></line><line x1="416" y1="156" x2="364" y2="208" opacity="0.81"></line><line x1="416" y1="156" x2="468" y2="208" opacity="0.81"></line><line x1="468" y1="156" x2="520" y2="208" opacity="0.81"></line><line x1="572" y1="156" x2="520" y2="208" opacity="0.81"></line><line x1="624" y1="156" x2="572" y2="208" opacity="0.81"></line><line x1="676" y1="156" x2="624" y2="208" opacity="0.81"></line><line x1="676" y1="156" x2="728" y2="208" opacity="0.81"></line><line x1="728" y1="156" x2="780" y2="208" opacity="0.81"></line><line x1="780" y1="156" x2="832" y2="208" opacity="0.81"></line><line x1="832" y1="156" x2="884" y2="208" opacity="0.81"></line><line x1="936" y1="156" x2="884" y2="208" opacity="0.81"></line><line x1="988" y1="156" x2="936" y2="208" opacity="0.81"></line><line x1="1040" y1="156" x2="988" y2="208" opacity="0.81"></line><line x1="1092" y1="156" x2="1040" y2="208" opacity="0.81"></line><line x1="1092" y1="156" x2="1144" y2="208" opacity="0.81"></line><line x1="1196" y1="156" x2="1144" y2="208" opacity="0.81"></line><line x1="1248" y1="156" x2="1196" y2="208" opacity="0.81"></line><line x1="1248" y1="156" x2="1300" y2="208" opacity="0.81"></line><line x1="1352" y1="156" x2="1300" y2="208" opacity="0.81"></line><line x1="1352" y1="156" x2="1404" y2="208" opacity="0.81"></line><line x1="1456" y1="156" x2="1404" y2="208" opacity="0.81"></line><line x1="0" y1="208" x2="52" y2="260" opacity="0.75"></line><line x1="52" y1="208" x2="104" y2="260" opacity="0.75"></line><line x1="156" y1="208" x2="104" y2="260" opacity="0.75"></line><line x1="208" y1="208" x2="156" y2="260" opacity="0.75"></line><line x1="260" y1="208" x2="208" y2="260" opacity="0.75"></line><line x1="312" y1="208" x2="260" y2="260" opacity="0.75"></line><line x1="312" y1="208" x2="364" y2="260" opacity="0.75"></line><line x1="416" y1="208" x2="364" y2="260" opacity="0.75"></line><line x1="468" y1="208" x2="416" y2="260" opacity="0.75"></line><line x1="468" y1="208" x2="520" y2="260" opacity="0.75"></line><line x1="572" y1="208" x2="520" y2="260" opacity="0.75"></line><line x1="624" y1="208" x2="572" y2="260" opacity="0.75"></line><line x1="676" y1="208" x2="624" y2="260" opacity="0.75"></line><line x1="676" y1="208" x2="728" y2="260" opacity="0.75"></line><line x1="728" y1="208" x2="780" y2="260" opacity="0.75"></line><line x1="780" y1="208" x2="832" y2="260" opacity="0.75"></line><line x1="884" y1="208" x2="832" y2="260" opacity="0.75"></line><line x1="936" y1="208" x2="884" y2="260" opacity="0.75"></line><line x1="936" y1="208" x2="988" y2="260" opacity="0.75"></line><line x1="988" y1="208" x2="1040" y2="260" opacity="0.75"></line><line x1="1092" y1="208" x2="1040" y2="260" opacity="0.75"></line><line x1="1144" y1="208" x2="1092" y2="260" opacity="0.75"></line><line x1="1144" y1="208" x2="1196" y2="260" opacity="0.75"></line><line x1="1248" y1="208" x2="1196" y2="260" opacity="0.75"></line><line x1="1248" y1="208" x2="1300" y2="260" opacity="0.75"></line><line x1="1300" y1="208" x2="1352" y2="260" opacity="0.75"></line><line x1="1404" y1="208" x2="1352" y2="260" opacity="0.75"></line><line x1="1456" y1="208" x2="1404" y2="260" opacity="0.75"></line><line x1="52" y1="260" x2="0" y2="312" opacity="0.69"></line><line x1="104" y1="260" x2="52" y2="312" opacity="0.69"></line><line x1="156" y1="260" x2="104" y2="312" opacity="0.69"></line><line x1="208" y1="260" x2="156" y2="312" opacity="0.69"></line><line x1="260" y1="260" x2="208" y2="312" opacity="0.69"></line><line x1="312" y1="260" x2="260" y2="312" opacity="0.69"></line><line x1="312" y1="260" x2="364" y2="312" opacity="0.69"></line><line x1="364" y1="260" x2="416" y2="312" opacity="0.69"></line><line x1="416" y1="260" x2="468" y2="312" opacity="0.69"></line><line x1="468" y1="260" x2="520" y2="312" opacity="0.69"></line><line x1="520" y1="260" x2="572" y2="312" opacity="0.69"></line><line x1="572" y1="260" x2="624" y2="312" opacity="0.69"></line><line x1="676" y1="260" x2="624" y2="312" opacity="0.69"></line><line x1="728" y1="260" x2="676" y2="312" opacity="0.69"></line><line x1="780" y1="260" x2="728" y2="312" opacity="0.69"></line><line x1="780" y1="260" x2="832" y2="312" opacity="0.69"></line><line x1="832" y1="260" x2="884" y2="312" opacity="0.69"></line><line x1="936" y1="260" x2="884" y2="312" opacity="0.69"></line><line x1="988" y1="260" x2="936" y2="312" opacity="0.69"></line><line x1="988" y1="260" x2="1040" y2="312" opacity="0.69"></line><line x1="1040" y1="260" x2="1092" y2="312" opacity="0.69"></line><line x1="1092" y1="260" x2="1144" y2="312" opacity="0.69"></line><line x1="1144" y1="260" x2="1196" y2="312" opacity="0.69"></line><line x1="1196" y1="260" x2="1248" y2="312" opacity="0.69"></line><line x1="1248" y1="260" x2="1300" y2="312" opacity="0.69"></line><line x1="1300" y1="260" x2="1352" y2="312" opacity="0.69"></line><line x1="1352" y1="260" x2="1404" y2="312" opacity="0.69"></line><line x1="1404" y1="260" x2="1456" y2="312" opacity="0.69"></line><line x1="0" y1="312" x2="52" y2="364" opacity="0.63"></line><line x1="52" y1="312" x2="104" y2="364" opacity="0.63"></line><line x1="104" y1="312" x2="156" y2="364" opacity="0.63"></line><line x1="156" y1="312" x2="208" y2="364" opacity="0.63"></line><line x1="260" y1="312" x2="208" y2="364" opacity="0.63"></line><line x1="260" y1="312" x2="312" y2="364" opacity="0.63"></line><line x1="312" y1="312" x2="364" y2="364" opacity="0.63"></line><line x1="416" y1="312" x2="364" y2="364" opacity="0.63"></line><line x1="416" y1="312" x2="468" y2="364" opacity="0.63"></line><line x1="520" y1="312" x2="468" y2="364" opacity="0.63"></line><line x1="572" y1="312" x2="520" y2="364" opacity="0.63"></line><line x1="572" y1="312" x2="624" y2="364" opacity="0.63"></line><line x1="676" y1="312" x2="624" y2="364" opacity="0.63"></line><line x1="728" y1="312" x2="676" y2="364" opacity="0.63"></line><line x1="728" y1="312" x2="780" y2="364" opacity="0.63"></line><line x1="780" y1="312" x2="832" y2="364" opacity="0.63"></line><line x1="832" y1="312" x2="884" y2="364" opacity="0.63"></line><line x1="936" y1="312" x2="884" y2="364" opacity="0.63"></line><line x1="988" y1="312" x2="936" y2="364" opacity="0.63"></line><line x1="1040" y1="312" x2="988" y2="364" opacity="0.63"></line><line x1="1040" y1="312" x2="1092" y2="364" opacity="0.63"></line><line x1="1144" y1="312" x2="1092" y2="364" opacity="0.63"></line><line x1="1196" y1="312" x2="1144" y2="364" opacity="0.63"></line><line x1="1248" y1="312" x2="1196" y2="364" opacity="0.63"></line><line x1="1248" y1="312" x2="1300" y2="364" opacity="0.63"></line><line x1="1300" y1="312" x2="1352" y2="364" opacity="0.63"></line><line x1="1352" y1="312" x2="1404" y2="364" opacity="0.63"></line><line x1="1404" y1="312" x2="1456" y2="364" opacity="0.63"></line><line x1="52" y1="364" x2="0" y2="416" opacity="0.57"></line><line x1="104" y1="364" x2="52" y2="416" opacity="0.57"></line><line x1="104" y1="364" x2="156" y2="416" opacity="0.57"></line><line x1="156" y1="364" x2="208" y2="416" opacity="0.57"></line><line x1="208" y1="364" x2="260" y2="416" opacity="0.57"></line><line x1="312" y1="364" x2="260" y2="416" opacity="0.57"></line><line x1="312" y1="364" x2="364" y2="416" opacity="0.57"></line><line x1="364" y1="364" x2="416" y2="416" opacity="0.57"></line><line x1="468" y1="364" x2="416" y2="416" opacity="0.57"></line><line x1="468" y1="364" x2="520" y2="416" opacity="0.57"></line><line x1="572" y1="364" x2="520" y2="416" opacity="0.57"></line><line x1="624" y1="364" x2="572" y2="416" opacity="0.57"></line><line x1="624" y1="364" x2="676" y2="416" opacity="0.57"></line><line x1="676" y1="364" x2="728" y2="416" opacity="0.57"></line><line x1="728" y1="364" x2="780" y2="416" opacity="0.57"></line><line x1="832" y1="364" x2="780" y2="416" opacity="0.57"></line><line x1="884" y1="364" x2="832" y2="416" opacity="0.57"></line><line x1="936" y1="364" x2="884" y2="416" opacity="0.57"></line><line x1="988" y1="364" x2="936" y2="416" opacity="0.57"></line><line x1="988" y1="364" x2="1040" y2="416" opacity="0.57"></line><line x1="1092" y1="364" x2="1040" y2="416" opacity="0.57"></line><line x1="1092" y1="364" x2="1144" y2="416" opacity="0.57"></line><line x1="1144" y1="364" x2="1196" y2="416" opacity="0.57"></line><line x1="1196" y1="364" x2="1248" y2="416" opacity="0.57"></line><line x1="1300" y1="364" x2="1248" y2="416" opacity="0.57"></line><line x1="1300" y1="364" x2="1352" y2="416" opacity="0.57"></line><line x1="1404" y1="364" x2="1352" y2="416" opacity="0.57"></line><line x1="1456" y1="364" x2="1404" y2="416" opacity="0.57"></line><line x1="52" y1="416" x2="0" y2="468" opacity="0.51"></line><line x1="52" y1="416" x2="104" y2="468" opacity="0.51"></line><line x1="104" y1="416" x2="156" y2="468" opacity="0.51"></line><line x1="156" y1="416" x2="208" y2="468" opacity="0.51"></line><line x1="208" y1="416" x2="260" y2="468" opacity="0.51"></line><line x1="312" y1="416" x2="260" y2="468" opacity="0.51"></line><line x1="364" y1="416" x2="312" y2="468" opacity="0.51"></line><line x1="416" y1="416" x2="364" y2="468" opacity="0.51"></line><line x1="416" y1="416" x2="468" y2="468" opacity="0.51"></line><line x1="468" y1="416" x2="520" y2="468" opacity="0.51"></line><line x1="520" y1="416" x2="572" y2="468" opacity="0.51"></line><line x1="572" y1="416" x2="624" y2="468" opacity="0.51"></line><line x1="676" y1="416" x2="624" y2="468" opacity="0.51"></line><line x1="728" y1="416" x2="676" y2="468" opacity="0.51"></line><line x1="780" y1="416" x2="728" y2="468" opacity="0.51"></line><line x1="832" y1="416" x2="780" y2="468" opacity="0.51"></line><line x1="884" y1="416" x2="832" y2="468" opacity="0.51"></line><line x1="936" y1="416" x2="884" y2="468" opacity="0.51"></line><line x1="936" y1="416" x2="988" y2="468" opacity="0.51"></line><line x1="1040" y1="416" x2="988" y2="468" opacity="0.51"></line><line x1="1040" y1="416" x2="1092" y2="468" opacity="0.51"></line><line x1="1092" y1="416" x2="1144" y2="468" opacity="0.51"></line><line x1="1144" y1="416" x2="1196" y2="468" opacity="0.51"></line><line x1="1196" y1="416" x2="1248" y2="468" opacity="0.51"></line><line x1="1248" y1="416" x2="1300" y2="468" opacity="0.51"></line><line x1="1352" y1="416" x2="1300" y2="468" opacity="0.51"></line><line x1="1352" y1="416" x2="1404" y2="468" opacity="0.51"></line><line x1="1404" y1="416" x2="1456" y2="468" opacity="0.51"></line><line x1="52" y1="468" x2="0" y2="520" opacity="0.44"></line><line x1="104" y1="468" x2="52" y2="520" opacity="0.44"></line><line x1="156" y1="468" x2="104" y2="520" opacity="0.44"></line><line x1="208" y1="468" x2="156" y2="520" opacity="0.44"></line><line x1="208" y1="468" x2="260" y2="520" opacity="0.44"></line><line x1="312" y1="468" x2="260" y2="520" opacity="0.44"></line><line x1="364" y1="468" x2="312" y2="520" opacity="0.44"></line><line x1="416" y1="468" x2="364" y2="520" opacity="0.44"></line><line x1="468" y1="468" x2="416" y2="520" opacity="0.44"></line><line x1="468" y1="468" x2="520" y2="520" opacity="0.44"></line><line x1="572" y1="468" x2="520" y2="520" opacity="0.44"></line><line x1="624" y1="468" x2="572" y2="520" opacity="0.44"></line><line x1="624" y1="468" x2="676" y2="520" opacity="0.44"></line><line x1="728" y1="468" x2="676" y2="520" opacity="0.44"></line><line x1="780" y1="468" x2="728" y2="520" opacity="0.44"></line><line x1="780" y1="468" x2="832" y2="520" opacity="0.44"></line><line x1="884" y1="468" x2="832" y2="520" opacity="0.44"></line><line x1="884" y1="468" x2="936" y2="520" opacity="0.44"></line><line x1="988" y1="468" x2="936" y2="520" opacity="0.44"></line><line x1="1040" y1="468" x2="988" y2="520" opacity="0.44"></line><line x1="1040" y1="468" x2="1092" y2="520" opacity="0.44"></line><line x1="1092" y1="468" x2="1144" y2="520" opacity="0.44"></line><line x1="1196" y1="468" x2="1144" y2="520" opacity="0.44"></line><line x1="1248" y1="468" x2="1196" y2="520" opacity="0.44"></line><line x1="1248" y1="468" x2="1300" y2="520" opacity="0.44"></line><line x1="1352" y1="468" x2="1300" y2="520" opacity="0.44"></line><line x1="1352" y1="468" x2="1404" y2="520" opacity="0.44"></line><line x1="1404" y1="468" x2="1456" y2="520" opacity="0.44"></line><line x1="0" y1="520" x2="52" y2="572" opacity="0.38"></line><line x1="52" y1="520" x2="104" y2="572" opacity="0.38"></line><line x1="156" y1="520" x2="104" y2="572" opacity="0.38"></line><line x1="208" y1="520" x2="156" y2="572" opacity="0.38"></line><line x1="260" y1="520" x2="208" y2="572" opacity="0.38"></line><line x1="312" y1="520" x2="260" y2="572" opacity="0.38"></line><line x1="364" y1="520" x2="312" y2="572" opacity="0.38"></line><line x1="364" y1="520" x2="416" y2="572" opacity="0.38"></line><line x1="468" y1="520" x2="416" y2="572" opacity="0.38"></line><line x1="520" y1="520" x2="468" y2="572" opacity="0.38"></line><line x1="572" y1="520" x2="520" y2="572" opacity="0.38"></line><line x1="572" y1="520" x2="624" y2="572" opacity="0.38"></line><line x1="624" y1="520" x2="676" y2="572" opacity="0.38"></line><line x1="728" y1="520" x2="676" y2="572" opacity="0.38"></line><line x1="780" y1="520" x2="728" y2="572" opacity="0.38"></line><line x1="832" y1="520" x2="780" y2="572" opacity="0.38"></line><line x1="884" y1="520" x2="832" y2="572" opacity="0.38"></line><line x1="936" y1="520" x2="884" y2="572" opacity="0.38"></line><line x1="936" y1="520" x2="988" y2="572" opacity="0.38"></line><line x1="1040" y1="520" x2="988" y2="572" opacity="0.38"></line><line x1="1092" y1="520" x2="1040" y2="572" opacity="0.38"></line><line x1="1092" y1="520" x2="1144" y2="572" opacity="0.38"></line><line x1="1196" y1="520" x2="1144" y2="572" opacity="0.38"></line><line x1="1248" y1="520" x2="1196" y2="572" opacity="0.38"></line><line x1="1300" y1="520" x2="1248" y2="572" opacity="0.38"></line><line x1="1300" y1="520" x2="1352" y2="572" opacity="0.38"></line><line x1="1404" y1="520" x2="1352" y2="572" opacity="0.38"></line><line x1="1404" y1="520" x2="1456" y2="572" opacity="0.38"></line><line x1="0" y1="572" x2="52" y2="624" opacity="0.32"></line><line x1="104" y1="572" x2="52" y2="624" opacity="0.32"></line><line x1="156" y1="572" x2="104" y2="624" opacity="0.32"></line><line x1="208" y1="572" x2="156" y2="624" opacity="0.32"></line><line x1="260" y1="572" x2="208" y2="624" opacity="0.32"></line><line x1="260" y1="572" x2="312" y2="624" opacity="0.32"></line><line x1="364" y1="572" x2="312" y2="624" opacity="0.32"></line><line x1="364" y1="572" x2="416" y2="624" opacity="0.32"></line><line x1="468" y1="572" x2="416" y2="624" opacity="0.32"></line><line x1="520" y1="572" x2="468" y2="624" opacity="0.32"></line><line x1="572" y1="572" x2="520" y2="624" opacity="0.32"></line><line x1="624" y1="572" x2="572" y2="624" opacity="0.32"></line><line x1="676" y1="572" x2="624" y2="624" opacity="0.32"></line><line x1="728" y1="572" x2="676" y2="624" opacity="0.32"></line><line x1="780" y1="572" x2="728" y2="624" opacity="0.32"></line><line x1="780" y1="572" x2="832" y2="624" opacity="0.32"></line><line x1="832" y1="572" x2="884" y2="624" opacity="0.32"></line><line x1="936" y1="572" x2="884" y2="624" opacity="0.32"></line><line x1="936" y1="572" x2="988" y2="624" opacity="0.32"></line><line x1="988" y1="572" x2="1040" y2="624" opacity="0.32"></line><line x1="1092" y1="572" x2="1040" y2="624" opacity="0.32"></line><line x1="1092" y1="572" x2="1144" y2="624" opacity="0.32"></line><line x1="1144" y1="572" x2="1196" y2="624" opacity="0.32"></line><line x1="1248" y1="572" x2="1196" y2="624" opacity="0.32"></line><line x1="1300" y1="572" x2="1248" y2="624" opacity="0.32"></line><line x1="1352" y1="572" x2="1300" y2="624" opacity="0.32"></line><line x1="1352" y1="572" x2="1404" y2="624" opacity="0.32"></line><line x1="1456" y1="572" x2="1404" y2="624" opacity="0.32"></line><line x1="0" y1="624" x2="52" y2="676" opacity="0.26"></line><line x1="52" y1="624" x2="104" y2="676" opacity="0.26"></line><line x1="104" y1="624" x2="156" y2="676" opacity="0.26"></line><line x1="208" y1="624" x2="156" y2="676" opacity="0.26"></line><line x1="260" y1="624" x2="208" y2="676" opacity="0.26"></line><line x1="312" y1="624" x2="260" y2="676" opacity="0.26"></line><line x1="364" y1="624" x2="312" y2="676" opacity="0.26"></line><line x1="416" y1="624" x2="364" y2="676" opacity="0.26"></line><line x1="468" y1="624" x2="416" y2="676" opacity="0.26"></line><line x1="520" y1="624" x2="468" y2="676" opacity="0.26"></line><line x1="572" y1="624" x2="520" y2="676" opacity="0.26"></line><line x1="624" y1="624" x2="572" y2="676" opacity="0.26"></line><line x1="676" y1="624" x2="624" y2="676" opacity="0.26"></line><line x1="728" y1="624" x2="676" y2="676" opacity="0.26"></line><line x1="728" y1="624" x2="780" y2="676" opacity="0.26"></line><line x1="832" y1="624" x2="780" y2="676" opacity="0.26"></line><line x1="884" y1="624" x2="832" y2="676" opacity="0.26"></line><line x1="884" y1="624" x2="936" y2="676" opacity="0.26"></line><line x1="988" y1="624" x2="936" y2="676" opacity="0.26"></line><line x1="1040" y1="624" x2="988" y2="676" opacity="0.26"></line><line x1="1040" y1="624" x2="1092" y2="676" opacity="0.26"></line><line x1="1144" y1="624" x2="1092" y2="676" opacity="0.26"></line><line x1="1144" y1="624" x2="1196" y2="676" opacity="0.26"></line><line x1="1196" y1="624" x2="1248" y2="676" opacity="0.26"></line><line x1="1300" y1="624" x2="1248" y2="676" opacity="0.26"></line><line x1="1352" y1="624" x2="1300" y2="676" opacity="0.26"></line><line x1="1352" y1="624" x2="1404" y2="676" opacity="0.26"></line><line x1="1456" y1="624" x2="1404" y2="676" opacity="0.26"></line><line x1="52" y1="676" x2="0" y2="728" opacity="0.20"></line><line x1="52" y1="676" x2="104" y2="728" opacity="0.20"></line><line x1="104" y1="676" x2="156" y2="728" opacity="0.20"></line><line x1="208" y1="676" x2="156" y2="728" opacity="0.20"></line><line x1="260" y1="676" x2="208" y2="728" opacity="0.20"></line><line x1="312" y1="676" x2="260" y2="728" opacity="0.20"></line><line x1="312" y1="676" x2="364" y2="728" opacity="0.20"></line><line x1="364" y1="676" x2="416" y2="728" opacity="0.20"></line><line x1="416" y1="676" x2="468" y2="728" opacity="0.20"></line><line x1="520" y1="676" x2="468" y2="728" opacity="0.20"></line><line x1="520" y1="676" x2="572" y2="728" opacity="0.20"></line><line x1="572" y1="676" x2="624" y2="728" opacity="0.20"></line><line x1="624" y1="676" x2="676" y2="728" opacity="0.20"></line><line x1="676" y1="676" x2="728" y2="728" opacity="0.20"></line><line x1="780" y1="676" x2="728" y2="728" opacity="0.20"></line><line x1="832" y1="676" x2="780" y2="728" opacity="0.20"></line><line x1="832" y1="676" x2="884" y2="728" opacity="0.20"></line><line x1="884" y1="676" x2="936" y2="728" opacity="0.20"></line><line x1="936" y1="676" x2="988" y2="728" opacity="0.20"></line><line x1="988" y1="676" x2="1040" y2="728" opacity="0.20"></line><line x1="1092" y1="676" x2="1040" y2="728" opacity="0.20"></line><line x1="1144" y1="676" x2="1092" y2="728" opacity="0.20"></line><line x1="1196" y1="676" x2="1144" y2="728" opacity="0.20"></line><line x1="1196" y1="676" x2="1248" y2="728" opacity="0.20"></line><line x1="1248" y1="676" x2="1300" y2="728" opacity="0.20"></line><line x1="1300" y1="676" x2="1352" y2="728" opacity="0.20"></line><line x1="1404" y1="676" x2="1352" y2="728" opacity="0.20"></line><line x1="1404" y1="676" x2="1456" y2="728" opacity="0.20"></line><line x1="0" y1="728" x2="52" y2="780" opacity="0.14"></line><line x1="104" y1="728" x2="52" y2="780" opacity="0.14"></line><line x1="156" y1="728" x2="104" y2="780" opacity="0.14"></line><line x1="208" y1="728" x2="156" y2="780" opacity="0.14"></line><line x1="260" y1="728" x2="208" y2="780" opacity="0.14"></line><line x1="260" y1="728" x2="312" y2="780" opacity="0.14"></line><line x1="364" y1="728" x2="312" y2="780" opacity="0.14"></line><line x1="364" y1="728" x2="416" y2="780" opacity="0.14"></line><line x1="468" y1="728" x2="416" y2="780" opacity="0.14"></line><line x1="520" y1="728" x2="468" y2="780" opacity="0.14"></line><line x1="572" y1="728" x2="520" y2="780" opacity="0.14"></line><line x1="624" y1="728" x2="572" y2="780" opacity="0.14"></line><line x1="624" y1="728" x2="676" y2="780" opacity="0.14"></line><line x1="676" y1="728" x2="728" y2="780" opacity="0.14"></line><line x1="780" y1="728" x2="728" y2="780" opacity="0.14"></line><line x1="780" y1="728" x2="832" y2="780" opacity="0.14"></line><line x1="832" y1="728" x2="884" y2="780" opacity="0.14"></line><line x1="936" y1="728" x2="884" y2="780" opacity="0.14"></line><line x1="936" y1="728" x2="988" y2="780" opacity="0.14"></line><line x1="1040" y1="728" x2="988" y2="780" opacity="0.14"></line><line x1="1040" y1="728" x2="1092" y2="780" opacity="0.14"></line><line x1="1144" y1="728" x2="1092" y2="780" opacity="0.14"></line><line x1="1144" y1="728" x2="1196" y2="780" opacity="0.14"></line><line x1="1196" y1="728" x2="1248" y2="780" opacity="0.14"></line><line x1="1248" y1="728" x2="1300" y2="780" opacity="0.14"></line><line x1="1300" y1="728" x2="1352" y2="780" opacity="0.14"></line><line x1="1352" y1="728" x2="1404" y2="780" opacity="0.14"></line><line x1="1456" y1="728" x2="1404" y2="780" opacity="0.14"></line><line x1="0" y1="780" x2="52" y2="832" opacity="0.07"></line><line x1="52" y1="780" x2="104" y2="832" opacity="0.07"></line><line x1="104" y1="780" x2="156" y2="832" opacity="0.07"></line><line x1="208" y1="780" x2="156" y2="832" opacity="0.07"></line><line x1="260" y1="780" x2="208" y2="832" opacity="0.07"></line><line x1="312" y1="780" x2="260" y2="832" opacity="0.07"></line><line x1="364" y1="780" x2="312" y2="832" opacity="0.07"></line><line x1="416" y1="780" x2="364" y2="832" opacity="0.07"></line><line x1="468" y1="780" x2="416" y2="832" opacity="0.07"></line><line x1="520" y1="780" x2="468" y2="832" opacity="0.07"></line><line x1="520" y1="780" x2="572" y2="832" opacity="0.07"></line><line x1="624" y1="780" x2="572" y2="832" opacity="0.07"></line><line x1="624" y1="780" x2="676" y2="832" opacity="0.07"></line><line x1="728" y1="780" x2="676" y2="832" opacity="0.07"></line><line x1="780" y1="780" x2="728" y2="832" opacity="0.07"></line><line x1="780" y1="780" x2="832" y2="832" opacity="0.07"></line><line x1="832" y1="780" x2="884" y2="832" opacity="0.07"></line><line x1="884" y1="780" x2="936" y2="832" opacity="0.07"></line><line x1="988" y1="780" x2="936" y2="832" opacity="0.07"></line><line x1="988" y1="780" x2="1040" y2="832" opacity="0.07"></line><line x1="1040" y1="780" x2="1092" y2="832" opacity="0.07"></line><line x1="1144" y1="780" x2="1092" y2="832" opacity="0.07"></line><line x1="1144" y1="780" x2="1196" y2="832" opacity="0.07"></line><line x1="1196" y1="780" x2="1248" y2="832" opacity="0.07"></line><line x1="1300" y1="780" x2="1248" y2="832" opacity="0.07"></line><line x1="1300" y1="780" x2="1352" y2="832" opacity="0.07"></line><line x1="1404" y1="780" x2="1352" y2="832" opacity="0.07"></line><line x1="1404" y1="780" x2="1456" y2="832" opacity="0.07"></line></g></svg>